REM DIRINDEX 1\2,1\3\5,1\3\6,1\4\7,1\4\8
REM DIRNAME cjc139,folder01,folder02,folder03,folder04,folder05,folder06,folder07
TITLE ""
FILE "JE_24new.mp3" MP3
  TRACK 01 AUDIO
    TITLE "0:"
    INDEX 01 00:00:00
  TRACK 02 AUDIO
    TITLE "7:cjc139_4215"
    INDEX 01 00:00:17
  TRACK 03 AUDIO
    TITLE "0:"
    INDEX 01 00:03:35
  TRACK 04 AUDIO
    TITLE "8:cjc139_4216"
    INDEX 01 00:06:20
  TRACK 05 AUDIO
    TITLE "0:"
    INDEX 01 00:08:64
  TRACK 06 AUDIO
    TITLE "7:cjc139_4217"
    INDEX 01 00:11:48
  TRACK 07 AUDIO
    TITLE "0:"
    INDEX 01 00:14:33
  TRACK 08 AUDIO
    TITLE "8:cjc139_4218"
    INDEX 01 00:17:16
  TRACK 09 AUDIO
    TITLE "0:"
    INDEX 01 00:19:62
  TRACK 10 AUDIO
    TITLE "7:cjc139_4219"
    INDEX 01 00:22:46
  TRACK 11 AUDIO
    TITLE "0:"
    INDEX 01 00:25:72
  TRACK 12 AUDIO
    TITLE "8:cjc139_4220"
    INDEX 01 00:28:57
  TRACK 13 AUDIO
    TITLE "0:"
    INDEX 01 00:31:39
  TRACK 14 AUDIO
    TITLE "7:cjc139_4221"
    INDEX 01 00:34:24
  TRACK 15 AUDIO
    TITLE "0:"
    INDEX 01 00:37:32
  TRACK 16 AUDIO
    TITLE "8:cjc139_4222"
    INDEX 01 00:40:17
  TRACK 17 AUDIO
    TITLE "0:"
    INDEX 01 00:43:40
  TRACK 18 AUDIO
    TITLE "7:cjc139_4223"
    INDEX 01 00:46:25
  TRACK 19 AUDIO
    TITLE "0:"
    INDEX 01 00:49:25
  TRACK 20 AUDIO
    TITLE "8:cjc139_4224"
    INDEX 01 00:52:10
  TRACK 21 AUDIO
    TITLE "0:"
    INDEX 01 00:55:20
  TRACK 22 AUDIO
    TITLE "7:cjc139_4225"
    INDEX 01 00:58:03
  TRACK 23 AUDIO
    TITLE "0:"
    INDEX 01 01:00:74
  TRACK 24 AUDIO
    TITLE "8:cjc139_4226"
    INDEX 01 01:03:55
  TRACK 25 AUDIO
    TITLE "0:"
    INDEX 01 01:06:42
  TRACK 26 AUDIO
    TITLE "7:cjc139_4227"
    INDEX 01 01:09:26
  TRACK 27 AUDIO
    TITLE "0:"
    INDEX 01 01:13:32
  TRACK 28 AUDIO
    TITLE "8:cjc139_4228"
    INDEX 01 01:16:20
  TRACK 29 AUDIO
    TITLE "0:"
    INDEX 01 01:19:70
  TRACK 30 AUDIO
    TITLE "7:cjc139_4229"
    INDEX 01 01:22:56
  TRACK 31 AUDIO
    TITLE "0:"
    INDEX 01 01:26:70
  TRACK 32 AUDIO
    TITLE "8:cjc139_4230"
    INDEX 01 01:29:56
  TRACK 33 AUDIO
    TITLE "0:"
    INDEX 01 01:33:09
  TRACK 34 AUDIO
    TITLE "7:cjc139_4231"
    INDEX 01 01:35:67
  TRACK 35 AUDIO
    TITLE "0:"
    INDEX 01 01:40:01
  TRACK 36 AUDIO
    TITLE "8:cjc139_4232"
    INDEX 01 01:42:63
  TRACK 37 AUDIO
    TITLE "0:"
    INDEX 01 01:45:63
  TRACK 38 AUDIO
    TITLE "7:cjc139_4233"
    INDEX 01 01:48:48
  TRACK 39 AUDIO
    TITLE "0:"
    INDEX 01 01:51:72
  TRACK 40 AUDIO
    TITLE "8:cjc139_4234"
    INDEX 01 01:54:58
  TRACK 41 AUDIO
    TITLE "0:"
    INDEX 01 01:57:47
  TRACK 42 AUDIO
    TITLE "7:cjc139_4235"
    INDEX 01 02:00:31
  TRACK 43 AUDIO
    TITLE "0:"
    INDEX 01 02:02:67
  TRACK 44 AUDIO
    TITLE "8:cjc139_4236"
    INDEX 01 02:05:52
  TRACK 45 AUDIO
    TITLE "0:"
    INDEX 01 02:08:62
  TRACK 46 AUDIO
    TITLE "7:cjc139_4237"
    INDEX 01 02:11:49
  TRACK 47 AUDIO
    TITLE "0:"
    INDEX 01 02:15:35
  TRACK 48 AUDIO
    TITLE "8:cjc139_4238"
    INDEX 01 02:18:19
  TRACK 49 AUDIO
    TITLE "0:"
    INDEX 01 02:20:71
  TRACK 50 AUDIO
    TITLE "7:cjc139_4239"
    INDEX 01 02:23:56
  TRACK 51 AUDIO
    TITLE "0:"
    INDEX 01 02:26:46
  TRACK 52 AUDIO
    TITLE "8:cjc139_4240"
    INDEX 01 02:29:31
  TRACK 53 AUDIO
    TITLE "0:"
    INDEX 01 02:32:69
  TRACK 54 AUDIO
    TITLE "7:cjc139_4241"
    INDEX 01 02:35:53
  TRACK 55 AUDIO
    TITLE "0:"
    INDEX 01 02:39:24
  TRACK 56 AUDIO
    TITLE "8:cjc139_4242"
    INDEX 01 02:42:10
  TRACK 57 AUDIO
    TITLE "0:"
    INDEX 01 02:45:40
  TRACK 58 AUDIO
    TITLE "7:cjc139_4243"
    INDEX 01 02:48:28
  TRACK 59 AUDIO
    TITLE "0:"
    INDEX 01 02:51:74
  TRACK 60 AUDIO
    TITLE "8:cjc139_4244"
    INDEX 01 02:54:62
  TRACK 61 AUDIO
    TITLE "0:"
    INDEX 01 02:58:39
  TRACK 62 AUDIO
    TITLE "7:cjc139_4245"
    INDEX 01 03:01:25
  TRACK 63 AUDIO
    TITLE "0:"
    INDEX 01 03:03:63
  TRACK 64 AUDIO
    TITLE "8:cjc139_4246"
    INDEX 01 03:06:48
  TRACK 65 AUDIO
    TITLE "0:"
    INDEX 01 03:09:46
  TRACK 66 AUDIO
    TITLE "7:cjc139_4247"
    INDEX 01 03:12:33
  TRACK 67 AUDIO
    TITLE "0:"
    INDEX 01 03:15:41
  TRACK 68 AUDIO
    TITLE "8:cjc139_4248"
    INDEX 01 03:18:24
  TRACK 69 AUDIO
    TITLE "0:"
    INDEX 01 03:21:28
  TRACK 70 AUDIO
    TITLE "7:cjc139_4249"
    INDEX 01 03:24:16
  TRACK 71 AUDIO
    TITLE "0:"
    INDEX 01 03:26:37
  TRACK 72 AUDIO
    TITLE "8:cjc139_4250"
    INDEX 01 03:29:25
  TRACK 73 AUDIO
    TITLE "0:"
    INDEX 01 03:31:54
  TRACK 74 AUDIO
    TITLE "7:cjc139_4251"
    INDEX 01 03:34:40
  TRACK 75 AUDIO
    TITLE "0:"
    INDEX 01 03:36:57
  TRACK 76 AUDIO
    TITLE "8:cjc139_4252"
    INDEX 01 03:39:45
  TRACK 77 AUDIO
    TITLE "0:"
    INDEX 01 03:42:12
  TRACK 78 AUDIO
    TITLE "7:cjc139_4253"
    INDEX 01 03:44:74
  TRACK 79 AUDIO
    TITLE "0:"
    INDEX 01 03:47:41
  TRACK 80 AUDIO
    TITLE "8:cjc139_4254"
    INDEX 01 03:50:30
  TRACK 81 AUDIO
    TITLE "0:"
    INDEX 01 03:53:36
  TRACK 82 AUDIO
    TITLE "7:cjc139_4255"
    INDEX 01 03:56:20
  TRACK 83 AUDIO
    TITLE "0:"
    INDEX 01 03:59:34
  TRACK 84 AUDIO
    TITLE "8:cjc139_4256"
    INDEX 01 04:02:21
  TRACK 85 AUDIO
    TITLE "0:"
    INDEX 01 04:05:09
  TRACK 86 AUDIO
    TITLE "7:cjc139_4257"
    INDEX 01 04:07:69
  TRACK 87 AUDIO
    TITLE "0:"
    INDEX 01 04:11:08
  TRACK 88 AUDIO
    TITLE "8:cjc139_4258"
    INDEX 01 04:13:68
  TRACK 89 AUDIO
    TITLE "0:"
    INDEX 01 04:16:47
  TRACK 90 AUDIO
    TITLE "8:cjc139_4259"
    INDEX 01 04:17:69
  TRACK 91 AUDIO
    TITLE "0:"
    INDEX 01 04:20:74
  TRACK 92 AUDIO
    TITLE "7:cjc139_4260"
    INDEX 01 04:23:58
  TRACK 93 AUDIO
    TITLE "0:"
    INDEX 01 04:26:43
  TRACK 94 AUDIO
    TITLE "8:cjc139_4261"
    INDEX 01 04:29:28
  TRACK 95 AUDIO
    TITLE "0:"
    INDEX 01 04:32:40
  TRACK 96 AUDIO
    TITLE "7:cjc139_4262"
    INDEX 01 04:35:26
  TRACK 97 AUDIO
    TITLE "0:"
    INDEX 01 04:38:17
  TRACK 98 AUDIO
    TITLE "8:cjc139_4263"
    INDEX 01 04:41:01
  TRACK 99 AUDIO
    TITLE "0:"
    INDEX 01 04:43:63
  TRACK 100 AUDIO
    TITLE "7:cjc139_4264"
    INDEX 01 04:46:50
  TRACK 101 AUDIO
    TITLE "0:"
    INDEX 01 04:49:42
  TRACK 102 AUDIO
    TITLE "8:cjc139_4265"
    INDEX 01 04:52:25
  TRACK 103 AUDIO
    TITLE "0:"
    INDEX 01 04:55:37
  TRACK 104 AUDIO
    TITLE "7:cjc139_4266"
    INDEX 01 04:58:23
  TRACK 105 AUDIO
    TITLE "0:"
    INDEX 01 05:01:41
  TRACK 106 AUDIO
    TITLE "8:cjc139_4267"
    INDEX 01 05:04:26
  TRACK 107 AUDIO
    TITLE "0:"
    INDEX 01 05:07:18
  TRACK 108 AUDIO
    TITLE "7:cjc139_4268"
    INDEX 01 05:10:03
  TRACK 109 AUDIO
    TITLE "0:"
    INDEX 01 05:12:51
  TRACK 110 AUDIO
    TITLE "8:cjc139_4269"
    INDEX 01 05:15:36
  TRACK 111 AUDIO
    TITLE "0:"
    INDEX 01 05:18:22
  TRACK 112 AUDIO
    TITLE "7:cjc139_4270"
    INDEX 01 05:21:05
  TRACK 113 AUDIO
    TITLE "0:"
    INDEX 01 05:23:27
  TRACK 114 AUDIO
    TITLE "8:cjc139_4271"
    INDEX 01 05:26:14
  TRACK 115 AUDIO
    TITLE "0:"
    INDEX 01 05:28:13
  TRACK 116 AUDIO
    TITLE "7:cjc139_4272"
    INDEX 01 05:30:70
  TRACK 117 AUDIO
    TITLE "0:"
    INDEX 01 05:34:11
  TRACK 118 AUDIO
    TITLE "8:cjc139_4273"
    INDEX 01 05:36:69
  TRACK 119 AUDIO
    TITLE "0:"
    INDEX 01 05:40:30
  TRACK 120 AUDIO
    TITLE "7:cjc139_4274"
    INDEX 01 05:43:12
  TRACK 121 AUDIO
    TITLE "0:"
    INDEX 01 05:46:56
  TRACK 122 AUDIO
    TITLE "8:cjc139_4275"
    INDEX 01 05:49:44
  TRACK 123 AUDIO
    TITLE "0:"
    INDEX 01 05:52:37
  TRACK 124 AUDIO
    TITLE "7:cjc139_4276"
    INDEX 01 05:55:23
  TRACK 125 AUDIO
    TITLE "0:"
    INDEX 01 05:59:54
  TRACK 126 AUDIO
    TITLE "8:cjc139_4277"
    INDEX 01 06:02:37
  TRACK 127 AUDIO
    TITLE "0:"
    INDEX 01 06:06:07
  TRACK 128 AUDIO
    TITLE "7:cjc139_4278"
    INDEX 01 06:08:67
  TRACK 129 AUDIO
    TITLE "0:"
    INDEX 01 06:11:60
  TRACK 130 AUDIO
    TITLE "8:cjc139_4279"
    INDEX 01 06:14:44
  TRACK 131 AUDIO
    TITLE "0:"
    INDEX 01 06:17:41
  TRACK 132 AUDIO
    TITLE "7:cjc139_4280"
    INDEX 01 06:20:27
  TRACK 133 AUDIO
    TITLE "0:"
    INDEX 01 06:24:27
  TRACK 134 AUDIO
    TITLE "8:cjc139_4281"
    INDEX 01 06:27:10
  TRACK 135 AUDIO
    TITLE "0:"
    INDEX 01 06:30:61
  TRACK 136 AUDIO
    TITLE "7:cjc139_4282"
    INDEX 01 06:33:45
  TRACK 137 AUDIO
    TITLE "0:"
    INDEX 01 06:37:49
  TRACK 138 AUDIO
    TITLE "8:cjc139_4283"
    INDEX 01 06:40:36
  TRACK 139 AUDIO
    TITLE "0:"
    INDEX 01 06:44:20
  TRACK 140 AUDIO
    TITLE "7:cjc139_4284"
    INDEX 01 06:47:08
  TRACK 141 AUDIO
    TITLE "0:"
    INDEX 01 06:49:54
  TRACK 142 AUDIO
    TITLE "8:cjc139_4285"
    INDEX 01 06:52:39
  TRACK 143 AUDIO
    TITLE "0:"
    INDEX 01 06:55:16
  TRACK 144 AUDIO
    TITLE "7:cjc139_4286"
    INDEX 01 06:58:02
  TRACK 145 AUDIO
    TITLE "0:"
    INDEX 01 07:00:56
  TRACK 146 AUDIO
    TITLE "8:cjc139_4287"
    INDEX 01 07:03:43
  TRACK 147 AUDIO
    TITLE "0:"
    INDEX 01 07:06:12
  TRACK 148 AUDIO
    TITLE "7:cjc139_4288"
    INDEX 01 07:08:69
  TRACK 149 AUDIO
    TITLE "0:"
    INDEX 01 07:12:22
  TRACK 150 AUDIO
    TITLE "8:cjc139_4289"
    INDEX 01 07:15:07
  TRACK 151 AUDIO
    TITLE "0:"
    INDEX 01 07:18:19
  TRACK 152 AUDIO
    TITLE "7:cjc139_4290"
    INDEX 01 07:21:07
  TRACK 153 AUDIO
    TITLE "0:"
    INDEX 01 07:24:47
  TRACK 154 AUDIO
    TITLE "8:cjc139_4291"
    INDEX 01 07:27:35
  TRACK 155 AUDIO
    TITLE "0:"
    INDEX 01 07:30:36
  TRACK 156 AUDIO
    TITLE "7:cjc139_4292"
    INDEX 01 07:33:22
  TRACK 157 AUDIO
    TITLE "0:"
    INDEX 01 07:35:68
  TRACK 158 AUDIO
    TITLE "8:cjc139_4293"
    INDEX 01 07:38:53
  TRACK 159 AUDIO
    TITLE "0:"
    INDEX 01 07:41:35
  TRACK 160 AUDIO
    TITLE "7:cjc139_4294"
    INDEX 01 07:44:18
  TRACK 161 AUDIO
    TITLE "0:"
    INDEX 01 07:46:72
  TRACK 162 AUDIO
    TITLE "8:cjc139_4295"
    INDEX 01 07:49:60
  TRACK 163 AUDIO
    TITLE "0:"
    INDEX 01 07:53:29
  TRACK 164 AUDIO
    TITLE "7:cjc139_4296"
    INDEX 01 07:56:13
  TRACK 165 AUDIO
    TITLE "0:"
    INDEX 01 07:58:63
  TRACK 166 AUDIO
    TITLE "8:cjc139_4297"
    INDEX 01 08:01:50
  TRACK 167 AUDIO
    TITLE "0:"
    INDEX 01 08:04:23
  TRACK 168 AUDIO
    TITLE "7:cjc139_4298"
    INDEX 01 08:07:07
  TRACK 169 AUDIO
    TITLE "0:"
    INDEX 01 08:09:65
  TRACK 170 AUDIO
    TITLE "8:cjc139_4299"
    INDEX 01 08:12:52
  TRACK 171 AUDIO
    TITLE "0:"
    INDEX 01 08:15:15
  TRACK 172 AUDIO
    TITLE "7:cjc139_4300"
    INDEX 01 08:17:74
  TRACK 173 AUDIO
    TITLE "0:"
    INDEX 01 08:20:30
  TRACK 174 AUDIO
    TITLE "8:cjc139_4301"
    INDEX 01 08:23:14
  TRACK 175 AUDIO
    TITLE "0:"
    INDEX 01 08:25:60
  TRACK 176 AUDIO
    TITLE "7:cjc139_4302"
    INDEX 01 08:28:45
  TRACK 177 AUDIO
    TITLE "0:"
    INDEX 01 08:31:43
  TRACK 178 AUDIO
    TITLE "8:cjc139_4303"
    INDEX 01 08:34:30
  TRACK 179 AUDIO
    TITLE "0:"
    INDEX 01 08:37:30
